<svg id="Layer_1" data-name="Layer 1" xmlns="http://www.w3.org/2000/svg" viewBox="0 0 512.61 118.13"><defs><style>.cls-1{fill:#700017;}.cls-2{fill:#ef1217;}</style></defs><title>ohiogov_RGB</title><path class="cls-1" d="M202.25,18.67h-18V2h18V18.67Zm0,63.2h6.35V93.2H178V81.87h6.35V43H178V31.65h24.3V81.87h0ZM247,30.77a31.43,31.43,0,0,0-31.57,31.29q0,0.21,0,.42c0,18.36,13.92,31.73,31.57,31.73s31.55-13.37,31.55-31.73a31.42,31.42,0,0,0-31.13-31.71H247ZM247,79c-9.24,0-14.52-7.73-14.52-16.56S237.74,45.93,247,45.93s14.52,7.73,14.52,16.55-5.36,16.6-14.49,16.6v0Zm-83,2.83h6.34V93.2h-30V81.87H146V62.61c0-.69-0.05-3.52-0.09-4.43-0.21-4.82-2.08-12-10.34-12-10.25,0-10.92,9.4-10.92,12.38V81.87h5.68V93.2h-30V81.87h6.35V13.29h-6.35V2h24.3V38c3.57-5.49,10.2-7.9,16.54-7.9,5.79,0,13.19,2.38,17,7C163.23,43,164,48.49,164,59.23V81.87h0Z" transform="translate(0.58 0)"/><path class="cls-2" d="M47.29,0A47.58,47.58,0,1,0,94.58,47.87q0-.15,0-0.3A47.33,47.33,0,0,0,47.49,0h-0.2Zm0,87.36c-21.66,0-39-17.89-39-39.78S25.63,7.8,47.29,7.8s39,17.88,39,39.77S69,87.36,47.29,87.36Z" transform="translate(0.58 0)"/><path d="M333.71,98.42c0.49,6.81,3.41,11.92,14.23,11.92,15.93,0,16.18-11.55,16.18-28.09C359.25,92.34,347.69,92.58,344,92.58c-5.59,0-13.62-1.22-18.73-7.54s-6.93-14.35-6.93-22.5c0-20.68,12.16-30.77,27.12-30.77,12.28,0,16.78,6.08,19.22,9.24l0.12-8.39h11.07l-0.24,11.07-0.13,38.19c0,14.72-.49,20.68-2.92,25.3-5.11,9.73-17,10.95-25.42,10.95-24.45,0-25.18-11.43-25.66-19.7h12.17ZM360.34,78c2.43-3.16,4.14-6.45,4.14-17.51,0-7.66-1.7-12-4.74-15.2a18,18,0,0,0-13.14-5.35c-14.47,0-16.42,14.6-16.42,22.38,0,9.36,2.8,21.77,16.78,21.77C353.65,84.08,357.54,81.64,360.34,78Z" transform="translate(0.58 0)"/><path d="M415.68,31.08c24.45,0,29.92,19.22,29.92,32,0,17.88-10.1,32.72-30.89,32.72-20.19,0-30-14-30-31.86C384.67,48.8,391.72,31.08,415.68,31.08Zm-0.73,56.19c8.64,0,18.49-6.2,18.49-24.57,0-15.2-7-23.23-17.76-23.23-7.3,0-19.09,4.62-19.09,23.72,0,12.49,5.35,24,18.36,24v0Z" transform="translate(0.58 0)"/><path d="M448.15,32.62h12.77L480.38,81l19-48.41H512L485.25,93.68H473.69Z" transform="translate(0.58 0)"/><circle cx="296.95" cy="84.63" r="8.88"/></svg>